HIERARCHY
ROOT joint_Root
{
	OFFSET 0.0 0.0 0.0
	CHANNELS 6 Xposition Yposition Zposition Zrotation Xrotation Yrotation 
	JOINT Hips
	{
		OFFSET -17.1583 93.1646 452.98
		CHANNELS 6 Xposition Yposition Zposition Zrotation Xrotation Yrotation 
		JOINT Spine
		{
			OFFSET 15.7357 0.0 0.0
			CHANNELS 6 Xposition Yposition Zposition Zrotation Xrotation Yrotation 
			JOINT Chest
			{
				OFFSET 8.98455 -0.406207 0.0
				CHANNELS 6 Xposition Yposition Zposition Zrotation Xrotation Yrotation 
				JOINT Neck
				{
					OFFSET 16.3773 0.0 0.0
					CHANNELS 6 Xposition Yposition Zposition Zrotation Xrotation Yrotation 
					JOINT Head
					{
						OFFSET 6.45672 0.0 0.0
						CHANNELS 6 Xposition Yposition Zposition Zrotation Xrotation Yrotation 
						End Site
						{
							OFFSET 0.0 0.0 0.0
						}
					}
				}
				JOINT Shoulder_L
				{
					OFFSET 12.9942 -0.242716 4.98039
					CHANNELS 6 Xposition Yposition Zposition Zrotation Xrotation Yrotation 
					JOINT UpperArm_L
					{
						OFFSET 5.34809 0.0 0.0
						CHANNELS 6 Xposition Yposition Zposition Zrotation Xrotation Yrotation 
						JOINT LowerArm_L
						{
							OFFSET 24.3286 1.87007e-05 0.0
							CHANNELS 6 Xposition Yposition Zposition Zrotation Xrotation Yrotation 
							JOINT Hand_L
							{
								OFFSET 22.2916 0.0 0.0
								CHANNELS 6 Xposition Yposition Zposition Zrotation Xrotation Yrotation 
								End Site
								{
									OFFSET 0.0 0.0 0.0
								}
							}
						}
					}
				}
				JOINT Shoulder_R
				{
					OFFSET 12.9945 -0.242716 -4.98039
					CHANNELS 6 Xposition Yposition Zposition Zrotation Xrotation Yrotation 
					JOINT UpperArm_R
					{
						OFFSET -5.34813 0.0 0.0
						CHANNELS 6 Xposition Yposition Zposition Zrotation Xrotation Yrotation 
						JOINT LowerArm_R
						{
							OFFSET -24.3289 0.000322201 0.0
							CHANNELS 6 Xposition Yposition Zposition Zrotation Xrotation Yrotation 
							JOINT Hand_R
							{
								OFFSET -22.2915 -0.000108084 0.0
								CHANNELS 6 Xposition Yposition Zposition Zrotation Xrotation Yrotation 
								End Site
								{
									OFFSET 0.0 0.0 0.0
								}
							}
						}
					}
				}
			}
		}
		JOINT UpperLeg_L
		{
			OFFSET -2.19248 -6.46944 0.0
			CHANNELS 6 Xposition Yposition Zposition Zrotation Xrotation Yrotation 
			JOINT LowerLeg_L
			{
				OFFSET 39.0811 0.0 -1.23785e-05
				CHANNELS 6 Xposition Yposition Zposition Zrotation Xrotation Yrotation 
				JOINT Foot_L
				{
					OFFSET 40.9854 0.0 -1.26872e-05
					CHANNELS 6 Xposition Yposition Zposition Zrotation Xrotation Yrotation 
					JOINT Toes_L
					{
						OFFSET 11.7543 0.0 0.0
						CHANNELS 6 Xposition Yposition Zposition Zrotation Xrotation Yrotation 
						End Site
						{
							OFFSET 0.0 0.0 0.0
						}
					}
				}
			}
		}
		JOINT UpperLeg_R
		{
			OFFSET -2.19251 6.46944 0.0
			CHANNELS 6 Xposition Yposition Zposition Zrotation Xrotation Yrotation 
			JOINT LowerLeg_R
			{
				OFFSET -39.0811 -0.00228153 -0.0401928
				CHANNELS 6 Xposition Yposition Zposition Zrotation Xrotation Yrotation 
				JOINT Foot_R
				{
					OFFSET -40.9854 0.0 0.0
					CHANNELS 6 Xposition Yposition Zposition Zrotation Xrotation Yrotation 
					JOINT Toes_R
					{
						OFFSET -11.7543 0.0 0.0
						CHANNELS 6 Xposition Yposition Zposition Zrotation Xrotation Yrotation 
						End Site
						{
							OFFSET 0.0 0.0 0.0
						}
					}
				}
			}
		}
	}
}
MOTION
Frames:	5
Frame Time:	0.0333333
0.000000 0.000000 0.000000 0.000000 0.000000 -0.000000 3.696250 91.235100 496.975000 -85.846400 -2.265300 -177.947000 15.735700 0.000005 -0.000001 69.193900 85.489800 -67.063300 8.984550 -0.406207 -0.000000 0.733507 -3.333660 4.280160 16.377300 -0.000001 -0.000001 7.435220 3.506080 -3.674910 6.456720 -0.000001 -0.000000 -3.800510 4.519740 0.381676 12.994200 -0.242716 4.980390 -93.082700 8.491110 -69.961300 5.348090 -0.000007 -0.000001 -77.240600 -2.285080 -3.287320 24.328600 0.000019 0.000005 23.817600 29.270200 -42.077800 22.291600 -0.000001 0.000005 43.513500 4.541360 15.911200 12.994500 -0.242716 -4.980390 87.831000 5.377340 -67.994300 -5.348130 -0.000001 -0.000004 -74.340400 11.274500 4.866860 -24.328900 0.000322 -0.000009 -2.614680 -12.001000 -12.381900 -22.291500 -0.000108 -0.000004 38.689800 5.516140 -7.199810 -2.192480 -6.469440 -0.000000 -172.537000 -8.381880 -5.109040 39.081100 -0.000007 -0.000012 0.079748 -0.055013 55.398800 40.985400 -0.000006 -0.000013 -5.360750 -3.965750 -62.227400 11.754300 -0.000000 0.000003 0.002402 0.099340 -12.548200 -2.192510 6.469440 -0.000001 -169.955000 1.179040 171.433000 -39.081100 -0.002282 -0.040193 0.282266 -0.563530 26.336700 -40.985400 0.000008 0.000006 5.958390 -1.481350 -73.358000 -11.754300 -0.000006 -0.000006 -0.005692 0.235679 -7.005780
0.000000 0.000000 0.000000 0.000000 0.000000 -0.000000 3.701600 91.185500 494.995000 -86.545800 -2.061690 -177.074000 15.735700 0.000005 -0.000001 74.497500 85.330100 -72.583900 8.984550 -0.406207 -0.000000 1.281790 -2.603420 3.853450 16.377300 -0.000001 -0.000001 7.524550 3.299370 -3.534340 6.456720 -0.000001 -0.000000 -3.251730 4.055230 0.305159 12.994200 -0.242716 4.980390 -93.178200 8.664360 -69.766400 5.348090 -0.000007 -0.000001 -76.624800 -5.515770 -2.044740 24.328600 0.000019 0.000005 22.570500 30.137300 -39.620600 22.291600 -0.000001 0.000005 43.181200 4.519920 16.273900 12.994500 -0.242716 -4.980390 87.785600 5.545300 -68.191100 -5.348130 -0.000001 -0.000004 -73.230000 15.924700 1.432610 -24.328900 0.000322 -0.000009 -3.338090 -12.591800 -14.970500 -22.291500 -0.000108 -0.000004 38.245800 5.519180 -7.327500 -2.192480 -6.469440 -0.000000 -174.162000 -4.639030 -9.899070 39.081100 -0.000007 -0.000012 0.055445 -0.029491 61.987400 40.985400 -0.000006 -0.000013 -5.991160 -2.550180 -61.844200 11.754300 -0.000000 0.000003 0.002297 0.107033 -12.236400 -2.192510 6.469440 -0.000001 -170.661000 1.025660 173.793000 -39.081100 -0.002282 -0.040193 0.279906 -0.559902 26.290300 -40.985400 0.000008 0.000006 5.791890 -1.551960 -74.313100 -11.754300 -0.000006 -0.000006 -0.005915 0.237725 -6.922370
0.000000 0.000000 0.000000 0.000000 0.000000 -0.000000 3.589910 91.189000 493.121000 -87.222900 -1.342020 -176.460000 15.735700 0.000005 -0.000001 80.574000 85.259800 -78.861000 8.984550 -0.406207 -0.000000 1.613840 -1.643700 3.446330 16.377300 -0.000001 -0.000001 7.960560 3.146260 -3.454680 6.456720 -0.000001 -0.000000 -2.801740 3.632790 0.243284 12.994200 -0.242716 4.980390 -93.261200 8.753420 -69.473300 5.348090 -0.000007 -0.000001 -74.958000 -8.879350 -0.025323 24.328600 0.000019 0.000005 19.649100 27.232300 -37.963600 22.291600 -0.000001 0.000005 42.149500 4.489990 16.765400 12.994500 -0.242716 -4.980390 87.878400 5.371540 -68.409900 -5.348130 -0.000001 -0.000004 -71.904100 17.739300 -1.737950 -24.328900 0.000322 -0.000009 -4.947370 -14.053700 -19.610900 -22.291500 -0.000108 -0.000004 38.852000 5.520680 -7.389310 -2.192480 -6.469440 -0.000000 -175.741000 -2.239680 -14.591000 39.081100 -0.000007 -0.000012 0.000232 -0.000097 66.048600 40.985400 -0.000006 -0.000013 -5.673910 -6.887580 -61.276200 11.754300 -0.000000 0.000003 0.002098 0.116963 -11.833700 -2.192510 6.469440 -0.000001 -171.517000 1.459230 176.058000 -39.081100 -0.002282 -0.040193 0.267998 -0.549144 25.734600 -40.985400 0.000008 0.000006 5.890060 -0.705711 -74.956800 -11.754300 -0.000006 -0.000006 -0.006982 0.247176 -6.536790
0.000000 0.000000 0.000000 0.000000 0.000000 -0.000000 3.469570 91.274300 491.294000 -88.176600 -0.391538 -176.385000 15.735700 0.000005 -0.000001 87.023200 85.337500 -85.624400 8.984550 -0.406207 -0.000000 1.554880 -0.559790 2.802770 16.377300 -0.000001 -0.000001 8.563280 3.060200 -3.381430 6.456720 -0.000001 -0.000000 -2.308170 3.228610 0.182090 12.994200 -0.242716 4.980390 -93.301600 8.713730 -69.154000 5.348090 -0.000007 -0.000001 -73.292500 -15.200300 1.186370 24.328600 0.000019 0.000005 19.157200 27.365900 -37.080400 22.291600 -0.000001 0.000005 42.488900 4.470350 17.086300 12.994500 -0.242716 -4.980390 87.953800 5.197570 -68.476200 -5.348130 -0.000001 -0.000004 -70.847300 16.835000 -4.380310 -24.328900 0.000322 -0.000009 -6.878290 -14.533800 -25.668200 -22.291500 -0.000108 -0.000004 39.661000 5.528560 -7.732660 -2.192480 -6.469440 -0.000000 -177.286000 -0.290026 -18.892500 39.081100 -0.000007 -0.000012 -0.038896 0.016798 66.649300 40.985400 -0.000006 -0.000013 -5.637520 -9.844740 -59.514600 11.754300 -0.000000 0.000003 0.000528 0.158197 -10.160800 -2.192510 6.469440 -0.000001 -172.676000 1.465560 178.027000 -39.081100 -0.002282 -0.040193 0.251851 -0.540721 24.685900 -40.985400 0.000008 0.000006 5.923520 0.125666 -75.454700 -11.754300 -0.000006 -0.000006 -0.008349 0.258521 -6.073540
0.000000 0.000000 0.000000 0.000000 0.000000 -0.000000 3.396140 91.419700 489.425000 -88.979700 0.688453 -176.434000 15.735700 0.000005 -0.000001 92.820400 85.431600 -91.714300 8.984550 -0.406207 -0.000000 1.356950 0.387520 2.205750 16.377300 -0.000001 -0.000001 9.394010 3.153640 -3.396960 6.456720 -0.000001 -0.000000 -1.947010 2.955630 0.169831 12.994200 -0.242716 4.980390 -93.382000 8.719840 -68.703700 5.348090 -0.000007 -0.000001 -70.263700 -19.462500 2.746450 24.328600 0.000019 0.000005 19.976300 28.049700 -37.704400 22.291600 -0.000001 0.000005 43.291300 4.456780 17.308700 12.994500 -0.242716 -4.980390 87.981300 5.160840 -68.602400 -5.348130 -0.000001 -0.000004 -70.026200 15.472200 -6.982550 -24.328900 0.000322 -0.000009 -8.336880 -13.923400 -31.337700 -22.291500 -0.000108 -0.000004 41.013700 5.531780 -7.870520 -2.192480 -6.469440 -0.000000 -178.558000 1.444150 -21.938700 39.081100 -0.000007 -0.000012 -0.081519 0.039591 64.098700 40.985400 -0.000006 -0.000013 -3.245830 -10.829400 -58.290000 11.754300 -0.000000 0.000003 0.002430 0.096497 -12.663500 -2.192510 6.469440 -0.000001 -173.786000 1.010450 -179.939000 -39.081100 -0.002282 -0.040193 0.196775 -0.450904 23.222000 -40.985400 0.000008 0.000006 4.623840 1.077620 -75.565600 -11.754300 -0.000006 -0.000006 -0.010242 0.273104 -5.477410
